<svg width="45" height="46" viewBox="0 0 45 46" fill="none" xmlns="http://www.w3.org/2000/svg">
<path d="M1.5 2.33984H30C37.4558 2.33984 43.5 8.384 43.5 15.8398V44.5H15C7.54416 44.5 1.5 38.4558 1.5 31V2.33984Z" stroke="#E02025" stroke-width="3"/>
<g clip-path="url(#clip0_14_1313)">
<path d="M27.3615 32.6268L27.0345 33.9681C26.0537 34.3566 25.2702 34.6523 24.6867 34.8556C24.1027 35.0596 23.424 35.161 22.6508 35.161C21.4633 35.161 20.5397 34.8691 19.881 34.2893C19.2222 33.7071 18.8928 32.9694 18.8928 32.0745C18.8928 31.7281 18.9167 31.3718 18.9664 31.0087C19.0165 30.6452 19.0962 30.2359 19.2053 29.7783L20.4311 25.4242C20.5401 25.0072 20.6328 24.6122 20.7071 24.2386C20.7824 23.8674 20.8186 23.5258 20.8186 23.2183C20.8186 22.6622 20.7039 22.2733 20.4755 22.0546C20.2471 21.8366 19.8113 21.7259 19.1644 21.7259C18.8475 21.7259 18.5218 21.7768 18.1898 21.8753C17.8563 21.9742 17.5713 22.0698 17.332 22.1586L17.6598 20.8162C18.4628 20.4881 19.2304 20.2071 19.9647 19.9739C20.6989 19.7401 21.3926 19.6231 22.0489 19.6231C23.2281 19.6231 24.1381 19.9091 24.7771 20.4811C25.4161 21.0536 25.7355 21.7957 25.7355 22.7102C25.7355 22.8994 25.7146 23.2328 25.6695 23.7093C25.6254 24.1868 25.5434 24.6244 25.4239 25.0224L24.2033 29.3591C24.1033 29.7074 24.0133 30.1056 23.9351 30.5537C23.8543 30.9988 23.8158 31.3389 23.8158 31.5671C23.8158 32.1429 23.9437 32.5361 24.2002 32.7451C24.4585 32.9541 24.9036 33.058 25.5357 33.058C25.8324 33.058 26.1701 33.0052 26.5453 32.9014C26.9194 32.7977 27.1923 32.7065 27.3615 32.6268ZM27.6711 14.4201C27.6711 15.1757 27.3873 15.821 26.8171 16.3516C26.2483 16.8841 25.5629 17.1505 24.7612 17.1505C23.9569 17.1505 23.2699 16.8841 22.6946 16.3516C22.1204 15.8208 21.8326 15.1757 21.8326 14.4201C21.8326 13.666 22.1204 13.0197 22.6946 12.4823C23.2688 11.9459 23.9571 11.6777 24.7612 11.6777C25.5627 11.6777 26.2483 11.9465 26.8171 12.4823C27.3877 13.0197 27.6711 13.6662 27.6711 14.4201Z" fill="#E02025"/>
</g>
<defs>
<clipPath id="clip0_14_1313">
<rect width="23.4" height="23.4833" fill="white" transform="translate(10.8008 11.6777)"/>
</clipPath>
</defs>
</svg>
